<svg version="1.2" baseProfile="tiny" viewBox="0 0 208.0 224.0" xmlns:xlink="http://www.w3.org/1999/xlink" xmlns="http://www.w3.org/2000/svg">
<path style="fill:#ffffff;" d="M96.7283,28.4525C96.4018,28.8669,95.965,29.5837,95.42,30.6051C94.875,31.6288,94.4403,32.6682,94.12,33.7254C93.8621,34.5542,93.6645,35.5555,93.523,36.7248C93.3795,37.8941,93.3587,38.8416,93.4502,39.5674L90.8648,39.8966C90.6506,37.623,91.0957,35.168,92.2002,32.5427C92.9219,30.912,93.5542,29.7539,94.095,29.0797L87.7822,29.8816L87.5326,27.6461L96.4808,26.5082L96.7283,28.4525M139.8842,41.0032C140.4374,40.6336,141.0594,40.4589,141.7478,40.4813C141.3838,39.8362,141.2278,39.2582,141.2798,38.7498C141.3318,38.239,141.4504,37.8,141.6397,37.4304C142.0619,36.6061,142.7338,36.0618,143.6531,35.7974C144.5766,35.5309,145.6062,35.6899,146.7419,36.2678C147.8818,36.848,148.6118,37.585,148.9405,38.4854C149.267,39.3837,149.2192,40.2461,148.797,41.0704C148.6077,41.44,148.3227,41.7962,147.94,42.1366C147.5573,42.4794,147.0123,42.6653,146.303,42.7011C146.7066,43.2992,146.9166,43.9286,146.9374,44.5917C146.9562,45.2502,146.8043,45.9021,146.4778,46.536C145.989,47.4902,145.2194,48.1242,144.1669,48.4333C143.1144,48.7424,141.9517,48.5766,140.6808,47.927C139.4078,47.2819,138.6133,46.4531,138.3013,45.4518C137.9893,44.4483,138.0787,43.4694,138.5675,42.513C138.892,41.8768,139.333,41.3728,139.8842,41.0032M140.739,45.0666C140.8701,45.5213,141.1946,45.8797,141.7062,46.1395C142.22,46.4016,142.7005,46.4509,143.1477,46.2918C143.5949,46.1328,143.961,45.7699,144.248,45.2144C144.5434,44.632,144.6203,44.119,144.4768,43.6688C144.3354,43.2186,144.013,42.8646,143.5096,42.6093C143.0083,42.3539,142.532,42.3002,142.0827,42.4525C141.6334,42.6003,141.2611,42.9654,140.9658,43.5434C140.6808,44.1034,140.6038,44.6118,140.739,45.0666M143.52,39.9728C143.6427,40.3648,143.9277,40.6739,144.377,40.9046C144.8346,41.1354,145.2547,41.1846,145.6374,41.0502C146.0202,40.9181,146.3155,40.6426,146.5277,40.2304C146.7565,39.7824,146.8106,39.368,146.692,38.9872C146.5714,38.6086,146.2843,38.3018,145.8267,38.071C145.3754,37.8403,144.9573,37.7888,144.5746,37.912C144.1898,38.0352,143.884,38.3219,143.6531,38.7699C143.443,39.1821,143.3973,39.583,143.52,39.9728M181.1763,68.0064C182.3141,68.2192,183.221,68.8621,183.8949,69.9261C184.9307,71.568,184.912,73.1494,183.8429,74.6749C183.2355,75.5395,182.26,76.3952,180.9122,77.2397C179.6059,78.0618,178.4099,78.5814,177.3242,78.7987C175.2608,79.2086,173.6925,78.568,172.6213,76.8723C172.1117,76.0637,171.8933,75.1856,171.9661,74.2403C172.0389,73.295,172.5048,72.4864,173.3638,71.8144L174.6971,73.9267C174.4101,74.1754,174.2374,74.471,174.175,74.816C174.1147,75.1587,174.1979,75.5104,174.4288,75.871C174.8677,76.5699,175.5666,76.8186,176.5192,76.6147C177.0434,76.4982,177.7298,76.2048,178.5742,75.7299C178.2082,75.6874,177.892,75.6,177.6258,75.4611C177.137,75.217,176.7106,74.8026,176.3424,74.2224C175.8016,73.3645,175.6165,72.417,175.7933,71.3798C175.968,70.345,176.6149,69.4736,177.7318,68.7725C178.8883,68.0445,180.0365,67.7891,181.1763,68.0064M179.1379,74.265C179.7495,74.5517,180.4358,74.4554,181.195,73.9782C181.8066,73.5952,182.2018,73.1494,182.3806,72.6387C182.5574,72.128,182.4909,71.624,182.1768,71.1312C181.948,70.7683,181.6526,70.5219,181.2845,70.392C180.7104,70.1859,180.0427,70.3226,179.2835,70.7997C178.6408,71.2029,178.2435,71.633,178.0854,72.0966C177.9294,72.5581,178.021,73.0598,178.3642,73.5974C178.5472,73.8909,178.8051,74.1126,179.1379,74.265M176.6648,177.8582C175.3544,177.7082,173.8506,177.007,172.1533,175.7571C170.456,174.5094,169.3432,173.2842,168.817,172.0858C168.2886,170.8829,168.507,169.6307,169.4722,168.3248C170.4373,167.0211,171.575,166.441,172.8771,166.591C174.1854,166.7411,175.6872,167.4378,177.3824,168.6877C179.0797,169.9354,180.1946,171.1629,180.727,172.3658C181.2595,173.5709,181.0432,174.823,180.0781,176.1312C179.113,177.4371,177.9752,178.0128,176.6648,177.8582M172.9354,169.0394C172.1678,168.7728,171.5605,168.9363,171.1195,169.5367C170.6765,170.137,170.6973,170.7574,171.1882,171.4048C171.677,172.0522,172.509,172.807,173.6904,173.6784C174.9301,174.5901,175.916,175.1725,176.6482,175.4256C177.3824,175.6765,177.971,175.5018,178.412,174.9037C178.855,174.3056,178.8509,173.6874,178.3974,173.0579C177.9461,172.424,177.0995,171.6557,175.864,170.744C174.6805,169.8771,173.705,169.3082,172.9354,169.0394M141.935,202.2339L142.5861,203.8109C141.8685,204.1447,141.3776,204.4022,141.1114,204.5859C140.687,204.8816,140.3917,205.2422,140.2274,205.6723C140.115,205.9658,140.0797,206.3107,140.1213,206.7027C140.1483,206.9379,140.1837,207.1082,140.2253,207.2112L138.2888,208.0087L133.4258,196.2285L135.8011,195.2518L139.1582,203.3741L141.935,202.2339M90.4571,203.1725C89.935,203.9318,88.92,204.6374,87.4203,205.2938C86.1182,205.8627,85.2634,206.2906,84.8557,206.5683C84.2296,207.0074,83.849,207.5472,83.7138,208.1968C83.6014,208.7254,83.6555,209.1936,83.876,209.6035C84.0944,210.0157,84.4771,210.28,85.0221,210.392C85.7709,210.5488,86.3366,210.3763,86.7256,209.8768C86.9482,209.5901,87.1478,209.0973,87.3226,208.4051L89.7125,208.9046C89.4483,209.9574,89.076,210.7728,88.5914,211.353C87.6741,212.4595,86.3762,212.8381,84.7038,212.4886C83.3789,212.2109,82.4034,211.6263,81.7752,210.7302C81.145,209.8342,80.9598,208.7859,81.2115,207.583C81.407,206.6602,81.8563,205.8986,82.5594,205.2982C83.0232,204.8973,83.7304,204.4918,84.683,204.0819L85.8146,203.5914C86.5218,203.2845,87.0085,203.0582,87.2789,202.9104C87.5472,202.7648,87.7843,202.5744,87.9944,202.3482L82.5365,201.208L82.992,199.0486L91.5533,200.8406C91.3411,201.7299,90.9771,202.5094,90.4571,203.1725M47.8192,184.6074C48.1645,184.231,48.3891,183.8659,48.4931,183.5075C48.6845,182.849,48.4848,182.2486,47.892,181.7088C47.528,181.3773,47.0995,181.2115,46.6003,181.2138C46.1011,181.216,45.6373,181.449,45.2109,181.9194C44.643,182.5354,44.5162,183.176,44.8261,183.8435C45.005,184.2198,45.4002,184.688,46.0138,185.2458L44.8011,186.5696C44.1917,186.032,43.7216,185.7072,43.3846,185.5974C42.8064,185.4048,42.2635,185.584,41.7581,186.1395C41.4274,186.4979,41.2672,186.8854,41.2693,187.3021C41.2734,187.7165,41.4669,188.0973,41.8454,188.4467C42.2822,188.8432,42.7294,188.9978,43.1891,188.9082C43.6488,188.8186,44.0856,188.5408,44.5016,188.0682L46.2301,189.6474C45.785,190.0976,45.2982,190.4672,44.772,190.7539C44.2832,190.9846,43.732,191.1078,43.1246,191.1213C42.6795,191.1213,42.2365,191.0272,41.7955,190.839C41.3566,190.6531,40.8949,190.3395,40.4061,189.896C39.5075,189.0739,38.9938,188.1802,38.869,187.2125C38.7421,186.2448,39.0374,185.369,39.755,184.585C40.2646,184.0339,40.8554,183.7181,41.5334,183.6374C41.9598,183.5882,42.3259,183.624,42.6296,183.7427C42.459,183.5904,42.3509,183.2208,42.301,182.6451C42.2282,181.776,42.5381,180.9651,43.2328,180.208C43.9608,179.4128,44.8781,178.9648,45.9846,178.864C47.087,178.7632,48.1811,179.209,49.2648,180.1968C50.5981,181.4109,51.1264,182.6899,50.8498,184.0339C50.6979,184.7462,50.2944,185.4899,49.6413,186.265L47.8192,184.6074M21.8109,139.7379L22.2165,141.12L24.8539,140.3517L25.5445,142.7037L22.907,143.472L24.3277,148.3149L22.2227,148.9286L13.4638,146.6058L12.6714,143.9066L20.332,141.671L19.9264,140.289L21.8109,139.7379M21.0226,144.023L15.7414,145.5642L21.917,147.0762L21.0226,144.023M21.0621,101.4384C21.6174,101.472,22.073,101.3958,22.4286,101.1942C22.7843,100.9949,23.0298,100.632,23.1608,100.1123C23.3126,99.512,23.219,99.0013,22.8717,98.5802C22.5285,98.159,22.0334,97.8678,21.3928,97.7043C20.7584,97.5453,20.1885,97.5587,19.6768,97.7424C19.1672,97.9283,18.8344,98.3315,18.6742,98.9565C18.6014,99.2499,18.5702,99.5142,18.591,99.7472C18.6326,100.1616,18.8136,100.511,19.136,100.7978L18.4808,102.9482L11.8581,100.3565L13.5824,93.5603L15.6499,94.08L14.3707,99.1267L16.9666,100.249C16.8168,99.8144,16.7294,99.4829,16.7024,99.2499C16.6608,98.8669,16.7024,98.4211,16.8314,97.9171C17.0893,96.8979,17.6592,96.0938,18.5432,95.5091C19.423,94.92,20.5213,94.7946,21.8358,95.1261C22.9819,95.415,23.9117,96.0378,24.623,96.9965C25.3406,97.9552,25.5091,99.1626,25.141,100.623C24.8435,101.7968,24.284,102.6816,23.4603,103.2752C22.6387,103.871,21.632,104.0659,20.4485,103.8576L21.0621,101.4384M44.3872,51.4685C44.2478,51.3162,44.0378,51.2019,43.757,51.1235C43.2869,51.007,42.8501,51.1302,42.4424,51.4931C41.835,52.0374,41.7082,52.7632,42.0618,53.6749C42.2573,54.1766,42.6608,54.815,43.2661,55.5968C43.2515,55.113,43.341,54.6717,43.5323,54.273C43.7258,53.872,44.019,53.4979,44.4122,53.144C45.2566,52.3891,46.2051,52.0554,47.2576,52.145C48.3122,52.2323,49.2398,52.7229,50.0386,53.6122C50.8331,54.497,51.272,55.5139,51.351,56.663C51.4301,57.8122,50.9122,58.8851,49.7952,59.8842C48.5971,60.9549,47.2659,61.2461,45.7995,60.7533C44.6555,60.368,43.5282,59.5571,42.4174,58.3229C41.7706,57.5994,41.2714,56.9834,40.924,56.4749C40.3083,55.5699,39.9152,54.7098,39.7488,53.8899C39.6074,53.191,39.6302,52.5056,39.8195,51.8336C40.0088,51.1594,40.4082,50.5501,41.0218,50.0035C41.9058,49.2128,42.8106,48.8096,43.7424,48.7917C44.6742,48.7738,45.5083,49.112,46.2488,49.8019L44.3872,51.4685M46.9726,58.7978C47.5384,58.8717,48.0334,58.7216,48.4578,58.3408C48.8738,57.969,49.0589,57.5232,49.0194,56.9968C48.9757,56.4726,48.7302,55.9619,48.283,55.4624C47.788,54.9091,47.2701,54.609,46.7334,54.5552C46.1989,54.5014,45.733,54.6538,45.3398,55.0054C45.0195,55.2899,44.8219,55.6371,44.7512,56.0493C44.6389,56.6608,44.8677,57.2813,45.4355,57.9152C45.8952,58.4259,46.4069,58.7194,46.9726,58.7978Z"/>
</svg>